<?xml version="1.0" encoding="utf-8"?>
<!-- Generator: Adobe Illustrator 24.2.3, SVG Export Plug-In . SVG Version: 6.00 Build 0)  -->
<svg version="1.1" id="图层_1" xmlns="http://www.w3.org/2000/svg" xmlns:xlink="http://www.w3.org/1999/xlink" x="0px" y="0px"
	 viewBox="0 0 413.9 84.5" style="enable-background:new 0 0 413.9 84.5;" xml:space="preserve">
<style type="text/css">
	.st0{fill:#409EFF;fill-opacity:0;}
	.st1{fill:#409EFF;}
	.st2{fill:none;}
</style>
<path class="st0" d="M42.7,31.7c0,6.2-4.3,9.7-11.1,9.7H20V22.9h11.6C39.1,22.9,42.7,26,42.7,31.7z"/>
<path class="st0" d="M86.1,25.2h-0.8l-8.9,26.7h19.3L86.1,25.2z M86.1,25.2h-0.8l-8.9,26.7h19.3L86.1,25.2z M86.1,25.2h-0.8
	l-8.9,26.7h19.3L86.1,25.2z M86.1,25.2h-0.8l-8.9,26.7h19.3L86.1,25.2z M86.1,25.2h-0.8l-8.9,26.7h19.3L86.1,25.2z M86.1,25.2h-0.8
	l-8.9,26.7h19.3L86.1,25.2z M86.1,25.2h-0.8l-8.9,26.7h19.3L86.1,25.2z M86.1,25.2h-0.8l-8.9,26.7h19.3L86.1,25.2z M0,0v84.5h235.6
	V0H0z M44,71.4L33.1,50.8H20v20.6H8.8V13.1h24.1c13.2,0,20.5,6.7,20.5,18.4c0,6.3-3.2,13.9-10.3,17.4l13.6,22.5H44z M102.6,71.4
	l-3.9-10.8H73.4l-3.7,10.8H57.6l20.9-58.3h14.3l22.9,58.3H102.6z M142,48.1v23.3h-11.2V48.1l-19.9-35h12.9l13.1,23.3l12.8-23.3h12.7
	L142,48.1z M173.4,38.1h-6.7l-1.2-25h9.1L173.4,38.1z M226.8,55.2c0,10.2-9.4,17-22.9,17c-14.7,0-24.5-6.3-24.5-20.1h11.4
	c0,6.8,4.8,10.9,12.8,10.9c7,0,11.9-3.1,11.9-7.8c0-13.8-35.3-6.1-35.3-27.3c0-9,9-15.7,22.4-15.7c14.9,0,24.2,6.9,24.2,20h-11.2
	c0-6.7-5.3-10.9-12.8-10.9c-5.5,0-11.6,1.8-11.6,6.8C191.2,40.5,226.8,34.1,226.8,55.2z M85.2,25.2l-8.9,26.7h19.3l-9.6-26.7H85.2z
	 M86.1,25.2h-0.8l-8.9,26.7h19.3L86.1,25.2z M86.1,25.2h-0.8l-8.9,26.7h19.3L86.1,25.2z M86.1,25.2h-0.8l-8.9,26.7h19.3L86.1,25.2z
	 M86.1,25.2h-0.8l-8.9,26.7h19.3L86.1,25.2z M86.1,25.2h-0.8l-8.9,26.7h19.3L86.1,25.2z M86.1,25.2h-0.8l-8.9,26.7h19.3L86.1,25.2z"
	/>
<polygon class="st0" points="296.7,13.1 296.7,71.4 285.5,71.4 285.5,46.2 255.6,46.2 255.6,71.4 244.4,71.4 244.4,13.1 255.6,13.1 
	255.6,35.6 285.5,35.6 285.5,13.1 "/>
<path class="st0" d="M356.3,13.1v37.2c0,14.9-11,21.9-24.5,21.9c-13.1,0-24.4-7-24.4-21.9V13.1h11.4v35.6c0,8.3,4.7,12.6,12.9,12.6
	c8,0,13.5-4.3,13.5-12.6V13.1H356.3z"/>
<path class="st0" d="M396.5,41.5v-0.4c7.3-0.8,12.2-5.3,12.2-13.1c0-8.2-3.8-14.9-20-14.9H367v58.3h24c17.9,0,22.9-7,22.9-16.3
	C413.9,46.7,406,41.9,396.5,41.5z M378.2,21.9h9.3c7.4,0,10.6,2.2,10.6,7.3c0,6-4.6,8.1-11,8.1h-8.8L378.2,21.9L378.2,21.9z
	 M388.3,62.5h-10.1V45.8h9.9c8.3,0,13.8,2.9,13.8,8.8S397.7,62.5,388.3,62.5z"/>
<rect x="244.3" class="st0" width="169.5" height="3.5"/>
<rect x="244.3" y="81" class="st0" width="169.5" height="3.5"/>
<g>
	<g>
		<path class="st1" d="M42.7,31.7c0,6.2-4.3,9.7-11.1,9.7H20V22.9h11.6C39.1,22.9,42.7,26,42.7,31.7z"/>
		<path class="st1" d="M86.1,25.2h-0.8l-8.9,26.7h19.3L86.1,25.2z M86.1,25.2h-0.8l-8.9,26.7h19.3L86.1,25.2z M86.1,25.2h-0.8
			l-8.9,26.7h19.3L86.1,25.2z M86.1,25.2h-0.8l-8.9,26.7h19.3L86.1,25.2z M86.1,25.2h-0.8l-8.9,26.7h19.3L86.1,25.2z M86.1,25.2
			h-0.8l-8.9,26.7h19.3L86.1,25.2z M86.1,25.2h-0.8l-8.9,26.7h19.3L86.1,25.2z M86.1,25.2h-0.8l-8.9,26.7h19.3L86.1,25.2z M0,0v84.5
			h235.6V0H0z M44,71.4L33.1,50.8H20v20.6H8.8V13.1h24.1c13.2,0,20.5,6.7,20.5,18.4c0,6.3-3.2,13.9-10.3,17.4l13.6,22.5H44z
			 M102.6,71.4l-3.9-10.8H73.4l-3.7,10.8H57.6l20.9-58.3h14.3l22.9,58.3H102.6z M142,48.1v23.3h-11.2V48.1l-19.9-35h12.9l13.1,23.3
			l12.8-23.3h12.7L142,48.1z M173.4,38.1h-6.7l-1.2-25h9.1L173.4,38.1z M226.8,55.2c0,10.2-9.4,17-22.9,17
			c-14.7,0-24.5-6.3-24.5-20.1h11.4c0,6.8,4.8,10.9,12.8,10.9c7,0,11.9-3.1,11.9-7.8c0-13.8-35.3-6.1-35.3-27.3
			c0-9,9-15.7,22.4-15.7c14.9,0,24.2,6.9,24.2,20h-11.2c0-6.7-5.3-10.9-12.8-10.9c-5.5,0-11.6,1.8-11.6,6.8
			C191.2,40.5,226.8,34.1,226.8,55.2z M85.2,25.2l-8.9,26.7h19.3l-9.6-26.7H85.2z M86.1,25.2h-0.8l-8.9,26.7h19.3L86.1,25.2z
			 M86.1,25.2h-0.8l-8.9,26.7h19.3L86.1,25.2z M86.1,25.2h-0.8l-8.9,26.7h19.3L86.1,25.2z M86.1,25.2h-0.8l-8.9,26.7h19.3L86.1,25.2
			z M86.1,25.2h-0.8l-8.9,26.7h19.3L86.1,25.2z M86.1,25.2h-0.8l-8.9,26.7h19.3L86.1,25.2z"/>
	</g>
	<g transform="translate(5,7)">
		<g>
			<g transform="scale(1)">
				<path class="st2" d="M221.8,48.2c0,10.2-9.4,17-22.9,17c-14.7,0-24.5-6.3-24.5-20.1h11.4c0,6.8,4.8,10.9,12.8,10.9
					c7,0,11.9-3.1,11.9-7.8c0-13.8-35.3-6.1-35.3-27.3c0-9,9-15.7,22.4-15.7c14.9,0,24.2,6.9,24.2,20h-11.2
					c0-6.7-5.3-10.9-12.8-10.9c-5.5,0-11.6,1.8-11.6,6.8C186.2,33.5,221.8,27.1,221.8,48.2z"/>
				<polygon class="st2" points="169.4,6.1 168.4,31.1 161.6,31.1 160.4,6.1 				"/>
				<polygon class="st2" points="157.4,6.1 137,41.1 137,64.4 125.8,64.4 125.8,41.1 105.9,6.1 118.8,6.1 131.9,29.4 144.7,6.1 				
					"/>
				<path class="st2" d="M87.7,6.1H73.5L52.6,64.4h12.2l3.7-10.8h25.3l3.9,10.8h13L87.7,6.1z M71.3,44.8l8.9-26.7h0.8l9.6,26.7H71.3
					z"/>
				<path class="st2" d="M38.1,41.9c7.1-3.5,10.3-11.1,10.3-17.4c0-11.8-7.3-18.4-20.5-18.4H3.8v58.3H15V43.8h13.1L39,64.4h12.7
					L38.1,41.9z M26.7,34.5H15V15.9h11.6c7.5,0,11.2,3.1,11.2,8.8C37.7,30.9,33.4,34.5,26.7,34.5z"/>
			</g>
		</g>
	</g>
</g>
<g transform="translate(134.5600128173828,0)">
	<g>
		<path class="st2" d="M279.3,0v3.5H109.8V0H101v84.5h8.8V81h169.5v3.5h8.8V0H279.3z M162.2,71.4h-11.2V46.2H121v25.2h-11.2V13.1
			H121v22.5h29.9V13.1h11.2V71.4z M221.7,50.3c0,14.9-11,21.9-24.5,21.9c-13.1,0-24.4-7-24.4-21.9V13.1h11.4v35.6
			c0,8.3,4.7,12.6,12.9,12.6c8,0,13.5-4.3,13.5-12.6V13.1h11.1L221.7,50.3L221.7,50.3z M256.4,71.4h-24V13.1h21.7
			c16.3,0,20,6.8,20,14.9c0,7.8-5,12.3-12.2,13.1v0.4c9.5,0.4,17.4,5.2,17.4,13.7C279.3,64.4,274.3,71.4,256.4,71.4z"/>
		<polygon class="st0" points="162.2,13.1 162.2,71.4 150.9,71.4 150.9,46.2 121,46.2 121,71.4 109.8,71.4 109.8,13.1 121,13.1 
			121,35.6 150.9,35.6 150.9,13.1 		"/>
		<path class="st0" d="M221.7,13.1v37.2c0,14.9-11,21.9-24.5,21.9c-13.1,0-24.4-7-24.4-21.9V13.1h11.4v35.6
			c0,8.3,4.7,12.6,12.9,12.6c8,0,13.5-4.3,13.5-12.6V13.1H221.7z"/>
		<path class="st0" d="M261.9,41.5v-0.4c7.3-0.8,12.2-5.3,12.2-13.1c0-8.2-3.8-14.9-20-14.9h-21.7v58.3h24c17.9,0,22.9-7,22.9-16.3
			C279.3,46.7,271.4,41.9,261.9,41.5z M243.6,21.9h9.3c7.4,0,10.6,2.2,10.6,7.3c0,6-4.6,8.1-11,8.1h-8.8V21.9z M253.7,62.5h-10.1
			V45.8h9.9c8.3,0,13.8,2.9,13.8,8.8S263.1,62.5,253.7,62.5z"/>
		<rect x="109.8" class="st0" width="169.5" height="3.5"/>
		<rect x="109.8" y="81" class="st0" width="169.5" height="3.5"/>
	</g>
	<g transform="translate(5,7)">
		<rect x="104.8" y="-7" class="st1" width="169.5" height="3.5"/>
		<rect x="104.8" y="74" class="st1" width="169.5" height="3.5"/>
		<g>
			<g transform="scale(1)">
				<path class="st1" d="M145.9,6.1v22.5H116V6.1h-11.2v58.3H116V39.2h29.9v25.2h11.2V6.1H145.9z M205.6,6.1v35.6
					c0,8.3-5.5,12.6-13.5,12.6c-8.3,0-12.9-4.3-12.9-12.6V6.1h-11.4v37.2c0,14.9,11.3,21.9,24.4,21.9c13.5,0,24.5-7,24.5-21.9V6.1
					H205.6z M256.9,34.5v-0.4c7.3-0.8,12.2-5.3,12.2-13.1c0-8.2-3.8-14.9-20-14.9h-21.7v58.3h24c17.9,0,22.9-7,22.9-16.3
					C274.3,39.7,266.4,34.9,256.9,34.5z M238.6,14.9h9.3c7.4,0,10.6,2.2,10.6,7.3c0,6-4.6,8.1-11,8.1h-8.8V14.9z M248.7,55.5h-10.1
					V38.8h9.9c8.3,0,13.8,2.9,13.8,8.8S258.1,55.5,248.7,55.5z"/>
				<path class="st2" d="M262.4,47.6c0,5.8-4.3,7.9-13.7,7.9h-10.1V38.8h9.9C256.8,38.8,262.4,41.7,262.4,47.6z"/>
				<path class="st2" d="M258.5,22.2c0,6-4.6,8.1-11,8.1h-8.8V14.9h9.3C255.3,14.9,258.5,17.2,258.5,22.2z"/>
			</g>
		</g>
	</g>
</g>
</svg>
